<svg width="1331" height="600" viewBox="0 0 1331 600" fill="none" xmlns="http://www.w3.org/2000/svg">
<path d="M548.147 257.143C548.147 257.143 587.265 192.858 665.5 192.858C730.761 192.858 782.853 257.143 782.853 257.143L939.323 321.429L1330.5 42.8577L939.323 557.143L665.5 428.572L391.676 557.143L0.5 42.8577L391.676 321.429L548.147 257.143Z" fill="#6C7180"/>
<g clip-path="url(#clip0_16_2)">
<path fill-rule="evenodd" clip-rule="evenodd" d="M511.494 175.314C529.291 175.314 546.36 167.568 558.945 153.78C571.53 139.992 578.6 121.292 578.6 101.793C578.6 82.2938 571.53 63.5934 558.945 49.8054C546.36 36.0175 529.291 28.2715 511.494 28.2715C493.701 28.2715 476.637 36.0152 464.056 49.7991C451.475 63.5831 444.407 82.2781 444.407 101.771C444.407 121.265 451.475 139.96 464.056 153.744C476.637 167.528 493.701 175.314 511.494 175.314ZM811.604 175.314C829.402 175.314 846.471 167.568 859.056 153.78C871.641 139.992 878.711 121.292 878.711 101.793C878.711 82.2938 871.641 63.5934 859.056 49.8054C846.471 36.0175 829.402 28.2715 811.604 28.2715C793.812 28.2715 776.748 36.0152 764.167 49.7991C751.586 63.5831 744.518 82.2781 744.518 101.771C744.518 121.265 751.586 139.96 764.167 153.744C776.748 167.528 793.812 175.314 811.604 175.314ZM811.604 190.614C784.674 190.569 758.516 200.474 737.359 218.729C753.39 233.855 765.331 253.507 771.882 275.547C778.434 297.588 779.347 321.174 774.521 343.743H912.254C917.441 343.743 922.416 341.485 926.084 337.467C929.752 333.448 931.813 327.998 931.813 322.314C931.813 287.385 919.148 253.887 896.605 229.188C874.061 204.49 843.486 190.614 811.604 190.614ZM511.494 190.614C538.424 190.569 564.582 200.474 585.739 218.729C569.708 233.855 557.768 253.507 551.216 275.547C544.664 297.588 543.751 321.174 548.577 343.743H410.805C405.618 343.743 400.643 341.485 396.975 337.467C393.307 333.448 391.246 327.998 391.246 322.314C391.251 305.019 394.366 287.895 400.411 271.918C406.457 255.942 415.316 241.426 426.482 229.201C437.648 216.975 450.903 207.279 465.489 200.666C480.075 194.053 495.708 190.652 511.494 190.657V190.614ZM661.549 388.443C670.359 388.443 679.083 386.542 687.222 382.848C695.361 379.154 702.757 373.74 708.987 366.915C715.216 360.09 720.158 351.988 723.529 343.07C726.901 334.153 728.636 324.595 728.636 314.943C728.636 305.291 726.901 295.733 723.529 286.816C720.158 277.898 715.216 269.796 708.987 262.971C702.757 256.145 695.361 250.731 687.222 247.038C679.083 243.344 670.359 241.443 661.549 241.443C643.757 241.443 626.693 249.187 614.112 262.971C601.53 276.754 594.462 295.449 594.462 314.943C594.462 334.436 601.53 353.131 614.112 366.915C626.693 380.699 643.757 388.443 661.549 388.443ZM541.34 535.443C541.34 518.148 544.45 501.022 550.491 485.043C556.532 469.065 565.386 454.546 576.549 442.317C587.711 430.087 600.963 420.387 615.547 413.768C630.132 407.149 645.763 403.743 661.549 403.743C677.335 403.743 692.966 407.149 707.551 413.768C722.135 420.387 735.387 430.087 746.549 442.317C757.712 454.546 766.566 469.065 772.607 485.043C778.648 501.022 781.758 518.148 781.758 535.443C781.758 541.126 779.697 546.577 776.029 550.595C772.361 554.614 767.386 556.871 762.199 556.871H560.899C555.712 556.871 550.737 554.614 547.069 550.595C543.401 546.577 541.34 541.126 541.34 535.443Z" fill="#D9D6CB"/>
</g>
<defs>
<clipPath id="clip0_16_2">
<rect width="547.647" height="600" fill="white" transform="translate(391.676)"/>
</clipPath>
</defs>
</svg>
